<svg id="Capa_1" enable-background="new 0 0 512 512" height="512" viewBox="0 0 512 512" width="512" xmlns="http://www.w3.org/2000/svg"><g><g><g><g><g><path d="m494.037 424.162c-1.852-3.591-4.546-6.444-7.709-8.455-4.494-2.856-7.667-7.419-8.758-12.631-2.187-10.452-9.497-19.674-20.474-23.749-14.984-5.562-32.071.891-39.646 14.965-8.959 16.645-1.882 37.112 15.037 44.825 5.582 2.545 42.97 20.376 53.724 13.64 9.554-5.982 12.992-18.575 7.826-28.595z" fill="#8fddc1"/></g><g><path d="m17.963 424.162c1.852-3.591 4.546-6.444 7.709-8.455 4.494-2.856 7.667-7.419 8.758-12.631 2.187-10.452 9.497-19.674 20.474-23.749 14.984-5.562 32.071.891 39.646 14.965 8.959 16.645 1.882 37.112-15.037 44.825-6.801 3.1-42.97 20.376-53.724 13.64-9.554-5.982-12.992-18.575-7.826-28.595z" fill="#8fddc1"/></g></g><g><g><g><g><g><path d="m402.538 130.664-146.538-73.425-190.403 95.404v301.692h336.941z" fill="#f4fbff"/><path d="m256 57.239-60.921 30.525 173.64 87.005c7.484 3.75 12.21 11.404 12.21 19.776v259.79h65.473v-301.692z" fill="#e4f6ff"/><path d="m423.582 122.935-162.486-81.417c-3.207-1.607-6.984-1.607-10.191 0l-221.447 110.959c-3.849 1.929-6.279 5.865-6.279 10.17v17.94c0 8.46 8.907 13.959 16.47 10.169l211.255-105.852c3.207-1.607 6.984-1.607 10.191 0l173.822 87.096v-36.187z" fill="#e28086"/><g><path d="m482.542 152.477-58.959-29.542v43.386l48.768 24.436c7.564 3.79 16.47-1.71 16.47-10.169v-17.94c0-4.306-2.43-8.242-6.279-10.171z" fill="#dd636e"/></g></g></g></g><path d="m446.403 471.687 5.151-3.469v-13.969c0-9.631-7.807-17.438-17.438-17.438h-416.678c-9.631 0-17.438 7.807-17.438 17.438 0 9.631 7.807 17.438 17.438 17.438z" fill="#407093"/><path d="m494.562 436.811h-65.597c9.631 0 17.438 7.807 17.438 17.438v17.438h48.159c9.631 0 17.438-7.807 17.438-17.438 0-9.631-7.807-17.438-17.438-17.438z" fill="#365e7d"/><g><path d="m111.734 263.743h101.202v173.068h-101.202z" fill="#eabc6b"/><path d="m391.434 338.985h-122.295c-4.878 0-8.832-3.954-8.832-8.832v-57.578c0-4.878 3.954-8.832 8.832-8.832h122.296c4.878 0 8.832 3.954 8.832 8.832v57.578c-.001 4.878-3.955 8.832-8.833 8.832z" fill="#cbe2ff"/><path d="m391.434 263.743h-61.148v75.242h61.148c4.878 0 8.832-3.954 8.832-8.832v-57.578c0-4.878-3.954-8.832-8.832-8.832z" fill="#bed8fb"/></g></g><g><path d="m222.207 271.469h-119.745c-4.268 0-7.726-3.459-7.726-7.726s3.459-7.726 7.726-7.726h119.745c4.268 0 7.726 3.459 7.726 7.726s-3.458 7.726-7.726 7.726z" fill="#e4f6ff"/></g></g></g><g><path d="m177.706 364.699c-4.268 0-7.726-3.459-7.726-7.726v-13.392c0-4.268 3.459-7.726 7.726-7.726s7.726 3.459 7.726 7.726v13.392c.001 4.268-3.458 7.726-7.726 7.726z" fill="#f4fbff"/></g></g></g></svg>